<svg width="260" height="248" viewBox="0 0 260 248" fill="none" xmlns="http://www.w3.org/2000/svg"><path d="M17.502 94.219c3.449.63 6.774.36 10.07.568 3.423.216 6.846.608 10.27.378 3.045-.204 5.96-1.057 8.633-2.616.371-.215.5-.371.354-.755-1.13-2.936-.343-5.754.32-8.663 1.007-4.405 3.9-7.756 5.98-11.558.794-1.456 1.607-2.914 2.717-4.195.603-.694 1.246-1.035 2.036-.747.767.28 1.206 1.102 1.22 1.831.054 2.543.374 5.11-.317 7.627-.109.396-.131.84-.094 1.252.25 2.694-.979 5.05-1.632 7.546-.32 1.226-.996 2.462-.59 3.93 1.738-1.251 3.433-2.51 4.63-4.168.736-1.019.925-2.47 1.228-3.756.532-2.276 1.216-4.516 1.733-6.787.467-2.056.954-4.112 1.491-6.146.782-2.964 1.544-5.934 2.516-8.86 1.801-5.427 4.485-10.377 7.43-15.218 1.955-3.215 4.334-6.033 7.71-7.89 1.559-.857 3-.865 4.526.096.578.363.694.923.451 1.219-.312.38-.983.461-1.392-.089-.78-1.047-1.511-.666-2.142.096-1.406 1.7-2.14 3.754-2.768 5.816a130.355 130.355 0 0 0-2.18 8.159c-.56 2.389-1.001 4.806-1.42 7.225-.505 2.894-1.312 5.71-2.104 8.53-.845 3.015-1.643 6.045-2.488 9.06-.562 2.011-1.183 4.004-1.756 6.012-.108.384-.345.886-.028 1.16.218.188.737.14 1.083.046 1.392-.376 2.757-.845 4.155-1.203.568-.146.709-.358.669-.939-.48-6.804 3.083-11.65 7.758-15.965 2.283-2.104 5-3.469 7.891-4.402 2.68-.863 5.516-.714 8.313-.659 1.953.038 3.891.16 5.68 1.017 2.119 1.017 2.997 2.785 3.014 5.094.016 2.215-1.208 3.504-3.007 4.518-1.98 1.118-4.188 1.33-6.34 1.605-3.514.45-7.021.933-10.518 1.501-1.163.19-2.293.57-3.434.88-.139.038-.255.18-.366.286-1.571 1.526-2.333 6.357-1.526 8.356 1.047 2.59 4.725 3.368 6.746 2.982 1.817-.346 3.648-.639 5.422-1.204 2.21-.701 4.38-1.463 5.952-3.282.456-.53 1.054-.583 1.445-.283.616.472-.078.909-.363 1.181-2.177 2.092-4.796 3.328-7.675 4.236-2.939.926-5.903.956-8.886.84-3.002-.113-5.896-.78-8.191-2.916-.417-.389-.77-.328-1.116-.21-2.583.878-5.149 1.812-7.73 2.697-.603.207-.636.805-.734 1.181-.966 3.74-2.162 7.407-3.207 11.121-.83 2.957-2.104 5.727-3.363 8.485-1.534 3.353-3.002 6.754-4.942 9.912-2.036 3.315-4.239 6.497-6.968 9.297-2.279 2.339-4.93 4.057-7.97 5.271-4.68 1.867-9.434-.475-10.902-5.404-.452-1.517-.946-3-1.004-4.6-.043-1.198.421-1.988 1.29-2.081.6-.063.779.224.625.739-.865 2.884.426 5.18 2.028 7.372.427.585.959 1.1 1.489 1.6 1.698 1.604 3.126 1.677 5.134.408 3.267-2.066 5.313-5.167 7.17-8.416 1.733-3.033 3.063-6.252 4.12-9.582 1.024-3.222 2.238-6.391 3.083-9.655.525-2.034 1.052-4.08 1.474-6.149.186-.92.489-1.821.769-2.722.073-.24.23-.484.083-.699-.176-.257-.459-.088-.691-.035-3.181.719-6.376.757-9.552.03-.462-.106-.613.141-.853.278-3.017 1.733-6.19 2.818-9.73 2.775-5.422-.063-10.847-.02-16.27-.046-1.595-.007-3.187-.093-4.782-.13-.59-.016-.95.113-1.34.759-1.33 2.197-2.694 4.41-5.023 5.772-.956.56-2.03.666-3.062.767-2.08.202-4.176.182-6.222-.356-.762-.202-1.39-.477-1.501-1.491-.298-2.714 1.582-5.684 4.602-6.627.618-.192 1.168-.664 1.89-.538.237.04.29-.174.383-.383 1.47-3.255 3.012-6.482 4.448-9.754 1.753-3.999 3.439-8.028 5.124-12.057 2.53-6.058 5.26-12.012 8.462-17.759 2.316-4.155 4.377-8.45 6.552-12.683.133-.257.24-.54.424-.757.433-.512.989-.408 1.478-.126.51.296.346.618-.02.982-.182.179-.235.53-.265.812-.2 1.998-.543 3.979-.812 5.962-.359 2.629-.588 5.283-1.206 7.887-.384 1.612-.621 3.27-.926 4.907-.45 2.409-1.242 4.705-2.014 7.003-1.074 3.192-2.399 6.297-3.486 9.484-1.751 5.129-4.057 10.003-6.572 14.784-.182.384-.27.78-.59 1.229Zm71.25-22.144c.406.02.578.063.734.03 2.344-.507 4.713-.925 7.024-1.559 3.063-.84 4.443-2.15 3.487-5.73-.336-1.26-.613-1.458-1.744-.87-3.726 1.938-6.794 4.65-9.5 8.13ZM231.02 153.75c.199-.217.484-.406.6-.674 1.633-3.774 4.203-6.91 6.885-9.937 2.602-2.935 5.637-5.412 9.529-6.361 1.888-.459 3.871-.961 5.912-.378 1.052.3 2.2.131 3.206.795 2.627 1.73 2.919 4.354 2.836 7.129-.126 4.135-1.493 7.968-3.371 11.55-2.305 4.405-5.295 8.369-9.074 11.669-3.303 2.884-6.951 5.195-11.106 6.671-.568.201-.999.635-1.07 1.274-.316 2.856-1.035 5.643-1.496 8.477-.699 4.299-1.078 8.628-1.592 12.942-.321 2.697-.003 5.465-.174 8.187-.179 2.831-.306 5.682-.898 8.472a1.863 1.863 0 0 1-1.398 1.451c-3.633.85-7.291.847-10.914-.018-.689-.164-1.274-.792-1.33-1.705-.202-3.376.351-6.699.742-10.021.199-1.696.393-3.409.57-5.099.399-3.833.966-7.652 1.06-11.517.035-1.497.476-2.977.426-4.494-.013-.368.088-.921-.106-1.064-.419-.316-.739.252-1.049.449-2.748 1.758-6.873 1.077-8.7-1.496-.532-.75-.809-1.615-1.044-2.493-.068-.255.101-.646-.325-.691-.306-.033-.492.194-.707.418-.928.974-1.91 1.9-2.853 2.861-2.062 2.107-4.68 2.904-7.509 3.083-1.841.117-3.721.205-5.54-.022-2.419-.3-5.048-.384-6.368-3.098-.265-.543-.605-.646-.979.116-1.37 2.787-3.047 5.32-5.532 7.334-2.508 2.033-5.399 2.704-8.442 2.954-2.579.212-5.182.076-7.72-.459-2.306-.487-4.209-1.761-5.271-3.88-.524-1.047-.88-.659-1.233-.139-1.701 2.505-3.888 4.549-6.108 6.56-2.988 2.704-6.404 4.768-9.996 6.557-2.839 1.412-5.818 2.512-8.914 3.103-3.608.689-7.301 1.039-10.858-.341-4.728-1.834-7.342-5.517-6.938-10.551.1-1.254.592-2.492 1.024-3.696.351-.979 1.289-1.387 2.212-1.604 1.196-.28 2.745.741 2.077 2.601-.29.807-.656 1.607-.815 2.442-.548 2.881.918 4.665 3.492 6.217 1.291.779 2.747 1.412 4.271 1.332 1.261-.066 2.553-.409 3.739-.868 2.927-1.133 5.704-2.614 8.189-4.529 3.626-2.793 6.628-6.156 8.901-10.17 1.466-2.588 2.394-5.263 2.379-8.275-.012-2.271-1.483-3.509-3.602-3.456-1.739.042-3.495.29-5.195.668-2.619.583-5.26.896-7.93.979-2.308.073-4.634.146-6.92-.179-2.586-.368-4.241-.966-4.842-3.883-.3-1.458.253-2.901.836-4.228 2.192-4.993 5.911-8.79 10.026-12.181 3.05-2.513 6.572-4.206 10.455-5.197 2.545-.651 5.093-.838 7.659-.661 2.511.174 4.779 1.024 5.917 3.572.282.636.592 1.31.643 1.986.156 2.048.156 4.11-.338 6.125-.268 1.09-1.088 1.522-2.422 1.328-1.06-.154-1.807-.684-1.693-1.867.209-2.173-.368-4.075-1.849-5.669-.967-1.04-1.812-1.065-3.121-.369-3.462 1.839-5.861 4.789-8.185 7.804-1.529 1.985-2.745 4.16-3.781 6.453-.48 1.062-.086.992.716.908 2.412-.254 4.804-.645 7.231-.789 3.575-.212 7.092.063 10.624.643 2.626.432 4.94 1.224 6.6 3.441.358.48.58.084.916-.272 1.617-1.713 2.636-3.85 4.089-5.649 2.806-3.469 6.393-5.182 11.051-4.768 2.742.242 5.164.731 7.195 2.699 1.133 1.098 1.87 2.407 2.533 3.787.114.235-.033.669.409.626.295-.028.449-.308.59-.59.954-1.908 2.127-3.664 3.469-5.334 2.584-3.222 5.543-6.055 9.522-7.226 2.142-.63 4.69-.978 6.738.841.265.237.457.459.714-.074.497-1.031 1.426-1.387 2.531-1.455 1.763-.109 3.522-.159 5.288-.028 2.694.199 3.678 1.294 2.932 3.875-.402 1.383-.538 2.803-.699 4.158-.55 4.614-1.189 9.246-.919 13.921.033.568-.121 1.375.384 1.628.563.28.954-.477 1.408-.805 1.037-.747 1.91-1.688 2.656-2.687.699-.936.79-2.187.84-3.343.205-4.549 1.355-8.956 1.93-13.45.548-4.273 1.406-8.507 2.115-12.761.06-.37.04-.754.05-1.132.035-1.325.818-2.064 2.177-2.057 1.259.008 1.933.74 1.983 2.097.134 3.691.286 7.38.429 11.068.01.162-.002.336.22.439Zm-8.253 21.783c.487.434.298.926.215 1.34-.664 3.315-1.037 6.675-1.252 10.036-.237 3.724-.61 7.437-1.047 11.134-.181 1.533-.201 3.083-.444 4.604a91.62 91.62 0 0 0-.999 9.35c-.07 1.276.593 1.63 1.61 1.703 2.306.164 4.617.174 6.925.007.964-.07 1.787-.396 1.903-1.569.209-2.159.595-4.314.64-6.476.096-4.695.137-9.375.803-14.053.487-3.411.875-6.835 1.413-10.243.585-3.719 1.523-7.352 2.295-11.023.861-4.089 2.352-7.977 3.757-11.878 1.297-3.592 2.967-7.064 5.026-10.301 1.985-3.118 4.322-5.949 7.44-8.063.875-.593 1.183-.24 1.504.482.857 1.922 1.092 3.953.814 6.004-.328 2.405-.817 4.774-1.642 7.087-1.597 4.468-4.054 8.389-7.165 11.929-1.65 1.877-3.618 3.386-5.682 4.776-.189.126-.648.212-.429.625.21.391.495.096.755.023.921-.262 1.662-.858 2.47-1.332 4.223-2.493 7.551-5.972 10.409-9.867 2.044-2.788 3.618-5.869 4.786-9.171 1.093-3.091 1.522-6.201 1.095-9.423-.194-1.463-1.587-2.798-2.856-2.889-1.602-.113-3.131-.399-4.831-.171-2.889.386-5.235 1.597-7.377 3.317-4.43 3.563-7.584 8.159-10.173 13.162-1.069 2.069-2.041 4.188-3.199 6.583-.265-5.886-.471-11.444-1.228-16.975-.951 2.241-1.168 4.635-1.6 6.974-.396 2.134-.517 4.327-1.009 6.436-.548 2.354-.782 4.748-1.214 7.114-.474 2.586-.605 5.235-.976 7.844-.086.606-.388 1.342-.843 1.711-2.21 1.799-4.077 4.041-6.867 5.321-.681-2.867-1.019-5.816-.759-8.732.345-3.908.456-7.844 1.168-11.727.217-1.178.575-2.351.603-3.572.01-.432.101-.782-.518-.926-2.162-.497-4.309-.517-6.456.033-.461.118-.691.431-.857.93-.745 2.243-1.507 4.484-2.501 6.633-1.246 2.692-2.81 5.22-4.45 7.67-1.476 2.205-3.096 4.352-5.228 6.315-.113-1.34-.267-2.516-.229-3.727a30.181 30.181 0 0 1 2.021-9.958c.996-2.591 2.177-5.083 4.332-6.958.146-.126.431-.146.327-.416-.105-.273-.391-.278-.643-.283-1.239-.025-2.371.366-3.464.904-2.699 1.327-4.778 3.393-6.686 5.651-3.443 4.077-5.843 8.578-5.737 14.108.066 3.416 1.052 4.761 4.299 5.548 2.564.621 5.185.368 7.761.212.868-.053 1.859-.237 2.76-.623 2.349-1.004 4.024-2.77 5.598-4.673.997-1.203 1.963-2.432 3.136-3.89.023 1.975.689 3.474.967 5.046.54 3.048 4.586 4.687 7.084 2.826 1.708-1.277 3.219-2.74 4.445-4.519Zm-62.798-.058c0-.237-.012-.477.003-.714.204-3.532-2.415-5.505-5.011-5.974-2.412-.437-4.839-.929-7.316-.906-1.89.018-3.812-.164-5.662.124-2.666.416-5.384.502-8.015 1.17-.901.23-1.264-.323-1.087-1.15.196-.929.36-1.9.772-2.74 2.815-5.775 6.496-10.881 11.86-14.57 1.024-.704 2.228-1.615 3.487-1.367 1.241.244 2.381 1.057 3.206 2.167 1.019 1.372 1.612 2.936 2.107 4.685.898-1.252.704-2.561.583-3.752-.177-1.738-1.234-3.103-2.887-3.62-3.539-1.105-7.127-.553-10.51.575-3.358 1.118-6.484 2.808-9.199 5.23-4.004 3.575-7.702 7.299-9.239 12.665-.476 1.663-.027 2.796 1.565 3.394 1.354.507 2.797.423 4.188.635 2.651.406 5.328-.144 7.975-.449a71.66 71.66 0 0 0 3.832-.565c2.026-.348 4.047-.855 6.156-.704 1.382.099 2.392.722 3.31 1.663 2.051 2.104 1.448 4.738.999 7.059-.764 3.953-2.967 7.329-5.535 10.399-4.516 5.397-10.049 9.325-16.838 11.374-.326.098-.734.081-.684.537.058.502.517.358.807.321 2.728-.376 5.417-.974 7.98-1.971 3.704-1.443 7.183-3.33 10.395-5.699 3.33-2.457 6.247-5.308 8.671-8.676 1.14-1.585 2.064-3.288 3.06-4.993.013 1.185-.073 2.331.086 3.489.348 2.525 2.238 4.632 4.587 5.139 2.538.548 5.139.681 7.72.474 2.828-.227 5.535-.885 7.68-2.977 5.076-4.947 7.42-10.831 5.888-17.895-.61-2.818-2.172-5.179-5.159-6.009-2.051-.571-4.181-.692-6.34-.404-1.234.164-2.329.545-3.346 1.181-.204.128-.797.196-.575.646.235.474.641.189.971.015.112-.058.223-.114.331-.172-4.415 3.378-8.152 7.342-10.816 12.365Zm77.204-6.247c1.231-.517 2.21-1.279 3.114-2.059 6.224-5.371 10.071-12.099 11.275-20.264.169-1.15.1-2.348.02-3.517-.053-.751-.29-1.274-1.226-.524-1.794 1.435-3.177 3.219-4.438 5.081-2.13 3.143-3.785 6.542-5.182 10.084a130.268 130.268 0 0 0-2.541 6.968c-.439 1.325-1.198 2.634-1.022 4.231Zm-38.555 2.117c2.646-3.282 4.821-6.827 6.63-10.601.144-.301.237-.606-.101-.755-1.107-.492-1.274-1.463-1.385-2.568-3.476 4.032-4.884 8.762-5.144 13.924Zm-72.59 29.632c.419 0 .752.012 1.083-.005.265-.015.686.108.683-.29-.002-.386-.383-.333-.681-.291a9.94 9.94 0 0 1-.986.109c-.487.023-1.31-.543-1.363.171-.043.608.888.134 1.264.306Z" fill="#050505"/><path d="M202.314 88.27c.189 3.257-1.559 4.582-4.233 5.366-.2.058-.455.053-.593.177-1.587 1.433-3.543 1.531-5.513 1.531-.959 0-1.675.659-2.538.924-1.123.345-2.19.355-3.29.363-.754.005-1.231.285-1.345 1.014-.164 1.065-.895 2-.658 3.156.113.553-.336.972-.666 1.247-.757.63-1.057 1.14-.459 2.119.302.494.313 1.408.063 1.95-.694 1.504-.656 3.184-1.254 4.655-.432 1.06-.147 2.253-.84 3.204-.089.121-.147.391-.076.479.956 1.194-.318 2.43.028 3.512.444 1.383.088 2.632-.068 3.936-.202 1.688.633 3.469-.492 5.089-.157.224.043.668-.026.991-.141.664.997 1.022.359 1.812-1.022 1.259-2.044 2.422-3.527 3.262-1.693.959-3.159-.003-4.653-.197-1.534-.199-2.845-3.671-2.124-5.142.341-.693.495-1.364.389-2.051-.291-1.857-.033-3.804.59-5.371.951-2.397.517-5.129 2.054-7.322.207-.295.146-.825.111-1.236-.147-1.778.509-3.524.348-5.255-.134-1.443.509-2.382 1.138-3.484.557-.982.411-2.135.123-3.197-.212-.777-.921-1.001-1.625-.835-.671.16-1.46.358-1.902.823-.832.875-1.781.933-2.843.9-1.408-.043-2.71.094-4.085.752-1.226.588-2.836.416-4.248.003-.548-.162-1.161-.634-1.58-.086-.411.537-.355 1.319.046 1.905.956 1.392 1.397 2.916 1.564 4.591.091.919.477 1.769.378 2.773-.257 2.589.255 5.185.099 7.781-.056.918-1.219 1.334-1.138 2.394.204 2.685-1.955 4.569-2.457 7.024-.023.111-.134.214-.222.303-1.845 1.791-3.159 4.077-5.15 5.709-1.788 1.468-3.807 2.508-6.269 2.389-1.093-.053-2.354.53-3.262.157-1.375-.568-2.967-.222-4.082-.851-2.16-1.216-3.78-3.219-5.536-4.995-.242-.245-.151-.547-.229-.82-.258-.908-.348-1.862-1.262-2.495-.721-.5-.552-1.4-.391-2.112.457-1.983.361-3.943-.353-5.8-.611-1.582.189-2.947.414-4.37.217-1.372-.159-2.825.595-4.157.202-.356.22-.904.437-1.355.524-1.093.784-2.248.625-3.489-.05-.394-.181-.863.096-1.227 1.738-2.278 2.344-5.242 4.453-7.298.603-.588.951-1.496 2.036-1.4.159.014.411-.182.5-.344.759-1.413 2.172-1.357 3.456-1.539 1.327-.189 2.566.046 3.545 1.078.272.285.62.492 1.011.423 1.63-.28 3.073.593 4.638.712.083.005.206-.02.242.025 1.029 1.297 2.651 1.648 3.966 2.49.335.215.507.747 1.019.608.616-.166.257-.691.331-1.057.048-.245.194-.504.154-.729-.399-2.127 1.125-2.944 2.583-3.767.5-.28 1.113-.575 1.65-.532 1.489.118 2.778-.267 3.984-1.093.603-.413 1.289-.474 2.021-.436 1.539.078 3.103.197 4.445-.822.759-.578 1.642-.51 2.505-.434.901.078 1.728.015 2.468-.588 1.062-.863 2.24-1.41 3.668-1.221.346.045.638-.142.916-.351 1.685-1.269 3.953-1.166 5.666-2.392.167-.12.497-.048.745-.017 1.41.176 2.717-.048 3.92-.853.593-.396 1.307-.116 1.966-.22 1.221-.189 2.328-.772 3.627-.744 1.777.038 2.748 1.292 3.878 2.26.323.273.106 1.179.139 1.797Zm-63.656 31.62c-.505 2.381 1.552 4.218 2.906 6.327.339.525.936.697 1.645.712 1.633.03 2.829-.676 3.855-1.844.326-.369.714-.909 1.113-.947 1.246-.118 1.625-1.052 2.094-1.914.452-.833.709-1.797 1.274-2.533.787-1.03.797-2.17.659-3.283-.109-.868-.152-1.637.386-2.336.593-.772.688-1.486-.043-2.228-.396-.401-.459-.903-.454-1.476.007-1.228-2.054-3.557-3.204-3.64-1.925-.139-3.843-.013-5.748.302-.36.061-.726.253-.724.596.008 1.847-1.935 2.679-2.167 4.491-.32 2.437-1.562 4.71-1.592 7.773Zm-50.89 32.167c-1.67.593-2.85-.578-4.067-1.567-1.06-.86-1.43-3.196-.797-4.826.414-1.07.704-2.145.593-3.303-.111-1.163.92-1.776 1.352-2.681.265-.558.61-1.068.762-1.691a26.509 26.509 0 0 1 2.768-6.961c.265-.464.353-1.057.41-1.551.263-2.235 1.517-4.128 2.022-6.32.57-2.465.752-5.149 2.109-7.44.373-.628.313-1.466.116-2.099-.48-1.539.376-2.513 1.307-3.373.991-.916 1.577-2.122 2.53-3.058 1.416-1.388 3.543-1.792 5.387-.898.653.315 1.39.222 2.069.714 1.534 1.115 2.497 2.742 3.887 3.971.286.252.419.724.518 1.122.585 2.342 1.753 4.466 2.55 6.732.399 1.135.649 2.063.301 3.214-.399 1.322.095 2.316 1.311 2.909.614.3 1.28.209 1.466-.465a57.082 57.082 0 0 1 1.504-4.677c.656-1.759-.058-3.62.838-5.263.146-.27-.051-.562-.111-.848-.089-.408-.341-.895.35-1.117.293-.094.401-.477.356-.757-.343-2.031.719-4.029.035-6.103-.252-.764.384-1.64.989-2.2a14.17 14.17 0 0 0 1.582-1.723c1.305-1.686 3.192-1.183 4.88-1.035 2.207.195 3.191 1.875 3.877 3.747.081.219.086.545-.017.744-1.068 2.024-.666 4.345-1.307 6.416-.626 2.023-1.136 4.052-1.6 6.113-.232 1.024-.328 2.152-.646 3.012-.436 1.186-.335 2.276-.489 3.409-.096.709-.855 1.082-1.1 1.869-.323 1.04.401 1.986-.076 2.937-.108.215-.053.568-.209.694-1.58 1.309-1.784 3.305-2.533 5.023-.227.52-.535.992-.616 1.617-.126.987-1.35.533-1.879 1.138-.172.194-.576.237-.83.487-.543.535-1.098.742-1.981.595-1.181-.194-2.437.043-3.656.147-.3.025-.585.106-.845-.063-1.244-.82-2.871-1.176-3.3-2.96-.234-.971-1.004-1.725-1.567-2.51-.613-.855-.517-1.867-1.069-2.707-.787-1.204-1.305-2.551-1.022-4.062.02-.114-.013-.308-.088-.356-1.343-.822-.972-2.588-1.991-3.6-.313-.31-.467-.787-.666-1.201-.139-.293-.146-.711-.59-.699-.49.013-.891.414-.84.792.28 2.077-1.461 3.258-2.067 4.925-.388 1.07-1.02 2.107-.827 3.328.083.535-.101.989-.371 1.428-.268.439-.505.916-.391 1.428.386 1.723-.386 3.277-.654 4.904-.197 1.211-.025 2.501-.764 3.603-.068.104-.008.343.066.482.59 1.087.345 2.092-.086 3.192-.583 1.488-.734 3.088-1.68 4.511-1.252 1.889-2.584 3.3-5.203 2.911Z" fill="#fff"/><path d="M133.564 5.846c-.156 2.74-1.443 5.313-3.378 7.601-3.149 3.724-7.165 6.401-11.113 9.161-1.476 1.032-2.945 2.077-4.37 3.174-.512.394-.752.52-1.282-.05-1.96-2.107-4.266-3.813-6.63-5.442-2.629-1.814-4.191-4.499-5.825-7.145-1.171-1.893-1.481-4.014-1.797-6.098C98.707 3.989 102.05-.04 105.078 0c2.382.033 4.685.694 6.789 1.988 1.771 1.09 3.182 2.551 4.587 4.022.739.774 1.102.628 1.751-.119 1.771-2.038 3.744-3.835 6.31-4.894 1.909-.79 3.852-1.04 5.85-.628 1.759.36 3.197 2.77 3.199 5.477ZM92.86 205.576c-1.53-.076-3.058.113-4.592-.363a6.896 6.896 0 0 1-3.545-2.478c-.51-.669-.807-.598-1.352-.068-2.062 2.003-4.408 3.704-7.183 4.397-2.64.659-5.392 1.128-8.16.422-.56-.144-1.165-.129-1.753-.147-3.567-.106-5.699-3.264-6.18-6.151-.475-2.845-.422-5.674.41-8.441a26.6 26.6 0 0 1 3.187-6.825c1.736-2.672 3.885-4.957 6.88-6.158 2.757-1.105 5.654-1.524 8.666-1.093 1.302.187 2.591.134 3.782.906 1.781 1.153 2.775 2.831 3.308 4.768.191.694.441.719.973.737 1.486.056 2.985-.204 4.443.434.926.406 1.345 1.176 1.204 1.933-.45 2.412-.914 4.821-1.315 7.243-.335 2.013-.454 3.991.24 5.941.308.868.774.679 1.607.475 3-.737 5.543-2.319 8.078-3.933 1.191-.76 2.205-1.754 3.086-2.897 1.208-1.572 3.275-1.572 4.155-.106.586.974-.08 1.698-.557 2.316-1.539 1.998-3.542 3.505-5.563 4.991-1.777 1.306-3.545 2.583-5.667 3.312-1.36.469-2.697.878-4.153.785Zm-1.946-1.819c1.426.075 2.886.169 4.254-.179 2.26-.578 4.246-1.799 6.085-3.227.25-.194.835-.321.525-.8-.257-.396-.659.03-.87.151-2.417 1.375-4.862 2.614-7.594 3.331-1.166.305-1.824.033-2.422-.75-1.602-2.094-1.451-4.523-1.126-6.925.336-2.47.805-4.922 1.242-7.38.146-.83-.132-1.137-.984-1.107-1.426.05-2.856-.005-4.284.023-.712.015-1.067-.154-1.065-.984.002-.641-.01-1.312-.338-1.953-.704-1.37-1.41-2.803-3.033-3.159-1.508-.333-3.06-.916-4.609-.583-.825.177-1.647.2-2.457.349-1.945.36-3.795.976-5.37 2.255-1.987 1.617-3.539 3.585-4.72 5.841a24.575 24.575 0 0 0-2.35 6.741c-.324 1.64.052 3.138.037 4.695-.013 1.244.358 2.316.954 3.277.658 1.062 1.592 1.951 2.954 2.142.987.139 1.968.338 2.957.406 2.543.172 5.089.142 7.513-.764 3.285-1.226 5.95-3.297 8.01-6.143.109-.152.326-.293.505-.311.273-.027.255.255.313.444 1.107 3.507 2.187 4.35 5.873 4.61ZM149.32 78.695c-.906-.015-1.456.008-1.965-.232-.23-.108-.674.023-.591-.456.061-.349.361-.47.671-.444 1.237.098 2.41-.215 3.593-.49 3.007-.699 5.545-2.197 7.554-4.528.875-1.015.681-1.868-.22-2.793-1.024-1.052-2.467-1.247-3.638-1.966-2.271-1.395-4.942-1.799-7.263-3.035-2.029-1.082-1.835-2.384-.253-3.618 2.483-1.935 5.341-3.282 8.235-4.473 2.553-1.052 5.228-1.75 8.033-1.824.739-.02 1.403.242 2.082.406.494.121.837.59.779 1.234-.058.658.119 1.448-.555 1.811-.633.339-1.12-.068-1.224-.751-.09-.608-.252-.455-.598-.172-2.278 1.875-4.579 3.716-6.852 5.596-.62.515-.82.986.192 1.408 2.288.958 4.645 1.788 6.739 3.158 1.327.868 2.719 1.724 2.909 3.527.101.964-.182 1.741-1.01 2.395-2.906 2.288-6.277 3.471-9.788 4.44-2.377.65-4.832.23-6.83.807Zm-14.893 2.42c-1.072.068-2.445.008-3.754-.484-1.486-.558-2.384-1.709-2.909-3.147-.986-2.694-.149-5.356.204-8.027.26-1.986 1.489-3.394 2.672-4.875 1.774-2.222 3.136-4.748 5.107-6.842.673-.714 1.385-.828 2.114-.613.719.212.714.999.764 1.688.205 2.79.343 5.583.674 8.366.126 1.052-.474 2.225-.871 3.297-.719 1.95-1.036 3.997-1.546 5.995-.078.302-.076.777.103.959.268.272.56-.106.851-.25 1.498-.755 2.878-1.665 4.125-2.79.492-.445.936-.894 1.185-1.517.308-.762.984-.575 1.474-.399.832.298.02.662-.099.919-.789 1.703-1.435 3.461-2.702 4.937-1.597 1.865-3.524 2.8-5.951 2.78-.374 0-.752.003-1.441.003Zm39.913 159.048c-1.799-1.529-3.497-2.889-4.973-4.557-1.872-2.119-4.362-3.545-6.665-5.167-2.072-1.458-4.05-3.035-5.458-5.189-1.599-2.45-3.08-5.008-2.956-8.036.088-2.132 1.067-3.989 2.813-5.338 3.698-2.861 7.808-2.897 12.019-1.567 3.09.976 5.24 3.035 6.433 6.136.482 1.253-.318 2.005-.779 2.78-.654 1.097-.399 1.842.335 2.629 1.797 1.93 1.764 1.889-.075 3.703-.689.682-2.006 1.093-1.976 2.026.023.777.977 1.534 1.534 2.286 1.4 1.892 1.362 2.119-.616 3.408-1.728 1.126-1.783 1.348-.792 3.205 1.287 2.414 1.287 2.414 1.156 3.681Zm-11.035-27.667c-.49-.164-.8.086-1.116.136-1.173.19-1.922 1.073-2.893 1.57-1.222.628-2.377 4.115-1.943 5.29.971 2.629 2.593 4.774 4.751 6.545 2.765 2.273 5.525 4.549 8.234 6.887.371.318.336.184.593-.03 1.887-1.569 1.9-1.559.646-3.618-.149-.245-.343-.462-.492-.704-1.256-2.033-1.208-2 .631-3.481 1.811-1.461 2.286-1.04.588-3.512-1.287-1.875-1.236-1.85.081-3.782.317-.469 1.082-1.113.62-1.675-1.211-1.486-2.525-3.048-4.566-3.285-1.731-.2-3.449-.969-5.134-.341Zm14.451 35.303c-.152-1.672-.941-3.067-1.658-4.475-.464-.913-.277-1.559.593-1.928.787-.333 1.254-1.039 1.971-1.453.557-.323.479-.903.126-1.42-.573-.843-1.025-1.804-1.731-2.511-.749-.749-.467-1.13.169-1.632.921-.729 1.827-1.481 2.727-2.238.459-.386.765-.779.079-1.292-.275-.204-.402-.605-.619-.898-1.564-2.109-1.703-2.52.243-4.243 1.45-1.284 2.487-2.972 4.271-3.959 1.584-.875 3.159-2.018 4.91-2.033 2.101-.018 4.225.186 5.964 2.043 2.099 2.241 3.406 4.569 3.33 7.7-.063 2.579-1.244 4.532-3.126 6.028-2.326 1.849-4.92 3.365-7.226 5.237-3.073 2.498-6.65 4.266-9.622 6.888-.086.078-.212.101-.401.186Zm18.099-19.923c-.118-1.544-.974-2.795-1.968-3.875-1.501-1.628-3.365-1.708-5.517-1.282-2.894.575-5.016 2.155-6.858 4.261-.433.497-.701 1.196.099 1.784.348.255.613.661.83 1.047.441.787 1.107 1.673.404 2.525-.798.967-1.708 1.938-2.773 2.556-.865.502-.704.813-.313 1.408.588.893 1.113 1.827 1.736 2.689.381.525.424 1.249.007 1.403-1.092.404-1.597 1.511-2.694 1.913-.833.305-.043.845.113 1.271.129.351.069.684.692.24 1.685-1.199 3.343-2.437 5.038-3.616 2.276-1.584 4.652-3.025 6.845-4.725 1.009-.782 1.935-1.668 2.914-2.485 1.642-1.375 1.64-3.197 1.445-5.114ZM57.695 63.02c-1.045.24-1.347-.708-1.648-1.324-.587-1.206-.999-2.5-1.743-3.633-.129-.194-.202-.368-.08-.57 1.059-1.769 4.427-4.214 6.814-3.595 1.425.368 2.828 1.965 3.108 3.458.093.495-.25.747-.47.931-1.642 1.358-2.992 3.03-4.727 4.29-.396.285-.742.479-1.254.444Zm80.673-13.215c-1.118.127-1.188-1.009-1.892-1.337-.379-.176-.661-.593-.934-.943-.371-.475-1.319-.651-.951-1.517.406-.95.707-1.862 2.023-2.232 1.956-.55 3.765-.641 5.677.05.747.27 1.161.775 1.211 1.393.053.646.129 1.41-.696 1.884-1.295.745-2.533 1.595-3.752 2.46-.272.194-.52.197-.686.242Zm34.463 112.427c3.918-1.198 5.826 1.35 6.151 4.365.598 5.535-1.655 10.185-4.887 14.461-1.022 1.35-2.056 2.69-3.431 3.731-.699.528-.959.364-1.231-.416-.989-2.843-.656-5.729-.212-8.575.646-4.128 1.723-8.162 3.461-11.987.25-.552.422-1.337 1.355-.804.167.095.323.027.336-.197.007-.169-.01-.316-.243-.343-.32-.043-.638-.114-1.299-.235Zm4.352 6.418c0-.797.015-1.597-.005-2.394-.015-.6-.34-1.14-.704-1.534-.363-.393-.689.278-1.075.351-.204.04-.423.068-.625.038-.707-.109-.931.333-1.131.885a69.11 69.11 0 0 0-1.675 5.389c-.805 2.982-1.244 6.015-1.511 9.083-.025.29-.043.61.05.875.164.472.336.848.924.24.711-.737 1.276-1.564 1.849-2.392 2.195-3.181 3.946-6.539 3.903-10.541Z" fill="#050505"/><path d="M71.036 197.613c.618-5.214 1.82-10.25 5.049-14.559 1.362-1.819 1.962-1.885 3.87-.699 1.662 1.034 2.949 2.46 3.988 4.117.374.596.379 1.277.079 1.802-2.917 5.091-6.482 9.665-11.026 13.417-.328.272-.655.9-1.238.58-.48-.263-.278-.828-.33-1.269-.135-1.12-.26-2.241-.392-3.389Zm1.736-.181c.126.605-.22 1.377.202 1.599.565.298.847-.492 1.213-.845 2.632-2.535 4.935-5.323 6.855-8.449 1.395-2.271 1.282-3.477-.868-5.081-.267-.2-.608-.323-.825-.563-.78-.855-1.375-.568-2.003.197-1.201 1.468-1.938 3.181-2.581 4.927-.989 2.685-1.69 5.445-1.993 8.215Z" fill="#050505"/></svg>